<svg xmlns="http://www.w3.org/2000/svg" shape-rendering="geometricPrecision" text-rendering="geometricPrecision" image-rendering="optimizeQuality" fill-rule="evenodd" clip-rule="evenodd" viewBox="0 0 369 511.64"><circle fill="#AC6644" cx="183.939" cy="96.236" r="96.236"/><path fill="#AC6644" d="M50.077 296.152c-49.352 18.394-69.471-45.378-26.759-65.836l26.759 65.836zM325.313 438.635c12.501 16.316 23.568 34.181 14.014 54.293-10.936 23.013-45.307 30.448-71.45-10.824l57.436-43.469zM100.604 481.631l-.535.733C67.144 543.363-4.944 496.773 43.76 438.61l56.844 43.021zM141.071 181.919c29.717 12.973 58.603 12.952 86.552-.726l89.13 36.658-26.916 66.225-12.24-5.3c-11.958-2.125-19.476 2.573-22.669 13.908v50.49l51.105 70.032-56.463 42.731-47.707-66.912c-11.343-12.345-22.501-12.505-33.485 0l-48.923 66.85L62.9 413.073l50.866-68.143v-46.063c-.07-18.351-10.419-22.711-26.274-19.577l-8.362 3.585-26.256-64.597 88.197-36.359zm205.104 48.301c14.248 6.854 24.563 15.813 22.581 37.379-2.768 30.115-26.415 33.701-49.148 27.984l26.567-65.363z"/><circle fill="#5F3A27" cx="148.338" cy="76.507" r="18.375"/><circle fill="#5F3A27" cx="219.998" cy="76.507" r="18.375"/><path fill="#5F3A27" fill-rule="nonzero" d="M141.075 123.028c-.816-3.364 1.304-6.741 4.735-7.541 3.432-.8 6.88 1.28 7.695 4.643 2.504 10.241 8.263 17.031 15.304 20.763 5.017 2.658 10.719 3.826 16.393 3.631 5.717-.194 11.385-1.768 16.292-4.582 7.039-4.038 12.498-10.685 14.182-19.517.65-3.405 3.996-5.648 7.469-5.012 3.474.637 5.764 3.916 5.113 7.32-2.422 12.707-10.234 22.242-20.296 28.015-6.75 3.873-14.53 6.035-22.357 6.304-7.867.268-15.817-1.373-22.861-5.105-10.052-5.326-18.218-14.804-21.669-28.919z"/><path fill="#fff" fill-rule="nonzero" d="M184.07 303.053a24.004 24.004 0 0117.026 7.053 24.004 24.004 0 017.053 17.026 24.006 24.006 0 01-7.053 17.026 24.008 24.008 0 01-17.026 7.053 24.01 24.01 0 01-17.026-7.053 24.01 24.01 0 01-7.053-17.026 24.008 24.008 0 017.053-17.026 24.006 24.006 0 0117.026-7.053z"/><path fill="#EB423F" d="M184.07 309.881c9.529 0 17.251 7.722 17.251 17.251 0 9.527-7.722 17.251-17.251 17.251-9.527 0-17.251-7.724-17.251-17.251 0-9.529 7.724-17.251 17.251-17.251z"/><path fill="#fff" fill-rule="nonzero" d="M184.07 240.107a24.004 24.004 0 0117.026 7.053 24.002 24.002 0 017.053 17.026 24.006 24.006 0 01-7.053 17.026 24.008 24.008 0 01-17.026 7.053c-6.628 0-12.641-2.698-16.998-7.053h-.028a24.01 24.01 0 01-7.053-17.026 24.006 24.006 0 017.053-17.026 24.006 24.006 0 0117.026-7.053z"/><path fill="#35A871" d="M184.07 246.934c9.529 0 17.251 7.724 17.251 17.252 0 9.527-7.722 17.251-17.251 17.251-9.527 0-17.251-7.724-17.251-17.251 0-9.528 7.724-17.252 17.251-17.252z"/><path fill="#FAE9D7" d="M183.915 185.649c-5.675-6.513-47.804-23.472-49.096 1.268-.621 11.861 9.361 15.844 18.416 14.577 12.661-1.77 31.452-6.269 30.68-15.845z"/><path fill="#FAE9D7" d="M183.964 185.649c5.675-6.513 47.804-23.472 49.097 1.268.62 11.861-9.361 15.844-18.417 14.577-12.66-1.77-31.452-6.269-30.68-15.845zM79.134 282.873l-26.259-64.596-29.562 12.041 26.762 65.829zM289.836 284.075l26.914-66.225 29.427 12.37-26.568 65.364zM43.709 438.67L62.9 413.073l56.557 42.797-18.854 25.762zM325.317 438.64l-19.284-25.434-56.463 42.73 18.306 26.167z"/></svg>