<svg xmlns="http://www.w3.org/2000/svg" shape-rendering="geometricPrecision" text-rendering="geometricPrecision" image-rendering="optimizeQuality" fill-rule="evenodd" clip-rule="evenodd" viewBox="0 0 512 440.478"><g fill-rule="nonzero"><path d="M39.1 73.078h109.472V32.764C148.572 14.75 163.322 0 181.336 0h149.329c18.037 0 32.765 14.737 32.765 32.764v40.314h109.469c21.433 0 39.101 17.661 39.101 39.1v289.2c0 21.434-17.659 39.1-39.101 39.1H39.1c-21.42 0-39.1-17.686-39.1-39.1v-289.2c0-21.418 17.687-39.1 39.1-39.1zm149.732 0H323.17V40.259H188.832v32.819z"/><path fill="#774B35" d="M39.1 84.4h433.8a27.422 27.422 0 0119.594 8.184c5.044 5.045 8.184 11.989 8.184 19.595v289.199c0 7.689-3.14 14.633-8.184 19.594-5.044 5.044-11.989 8.184-19.594 8.184H39.1a27.405 27.405 0 01-19.594-8.184c-5.041-5.044-8.184-11.988-8.184-19.594V112.179c0-7.689 3.14-14.633 8.184-19.595C24.55 87.544 31.495 84.4 39.1 84.4z"/><path fill="#955F44" d="M39.1 84.4h125.419v-.003H347.48v.003H472.9a27.412 27.412 0 0119.593 8.184c5.044 5.045 8.185 11.989 8.185 19.595v85.472c-110.572 60.822-231.305 162.845-489.355-6.365v-79.107a27.407 27.407 0 018.183-19.595C24.55 87.543 31.494 84.4 39.1 84.4z"/><path fill="#03040D" d="M9.866 190.341c31.556 21.314 66.418 39.504 102.402 54.354 38.374 15.836 78.105 27.923 116.539 35.993l-2.752 11.379c-39.134-8.217-79.65-20.549-118.847-36.725-36.89-15.224-72.547-33.815-104.712-55.541l7.37-9.46zM510.248 199.277c-32.362 21.917-68.128 40.626-105.057 55.898-39.294 16.25-79.943 28.64-119.244 36.892l-2.752-11.379c38.532-8.091 78.377-20.235 116.885-36.16 36.209-14.974 71.212-33.272 102.798-54.666l7.37 9.415z"/><path d="M246.202 240.255H265.8c11.369 0 20.546 9.177 20.546 20.547v51.147c0 11.371-9.175 20.547-20.546 20.547h-19.598c-11.322 0-20.547-9.225-20.547-20.547v-51.147c0-11.324 9.225-20.547 20.547-20.547z"/><path fill="#FDB735" d="M246.201 249.081H265.8a11.69 11.69 0 0111.721 11.721v51.147A11.69 11.69 0 01265.8 323.67h-19.599a11.69 11.69 0 01-11.72-11.721v-51.147a11.69 11.69 0 0111.72-11.721z"/><path fill="#774B35" d="M178.767 74.45h-20.13V32.764c0-12.506 10.193-22.699 22.699-22.699h149.329c12.506 0 22.7 10.194 22.7 22.699V74.45h-20.13V32.764c0-1.394-1.175-2.569-2.57-2.569H181.336c-1.395 0-2.569 1.174-2.569 2.569V74.45z"/></g></svg>